<?xml version="1.0" encoding="UTF-8"?>
<svg width="18px" height="18px" viewBox="0 0 18 18" version="1.1" xmlns="http://www.w3.org/2000/svg" xmlns:xlink="http://www.w3.org/1999/xlink">
    <!-- Generator: Sketch 50.2 (55047) - http://www.bohemiancoding.com/sketch -->
    <title>审批 copy</title>
    <desc>Created with Sketch.</desc>
    <defs></defs>
    <g id="Page-1" stroke="none" stroke-width="1" fill="none" fill-rule="evenodd">
        <g id="审批-copy" fill="#3096FF" stroke="#3096FF">
            <path d="M9,0.5 C4.30557963,0.5 0.5,4.30557963 0.5,9 C0.5,13.6944204 4.30557963,17.5 9,17.5 C13.6944204,17.5 17.5,13.6944204 17.5,9 C17.5,4.30557963 13.6944204,0.5 9,0.5 Z M9,0.5 C13.6944204,0.5 17.5,4.30557963 17.5,9 C17.5,13.6944204 13.6944204,17.5 9,17.5 C4.30557963,17.5 0.5,13.6944204 0.5,9 C0.5,4.30557963 4.30557963,0.5 9,0.5 Z M10.5022323,4.98875077 L5.50396746,4.98875077 L5.50396746,12.8249645 L7.72869552,12.8249645 L7.72869552,11.9421062 L6.69268739,11.9421062 L6.54652188,11.7972657 C6.21934342,11.473053 6.21934342,10.9513916 6.53299723,10.6411119 L8.43058543,8.609342 C8.58587033,8.45604943 8.79641631,8.37064878 9.01643909,8.37001729 C9.23497961,8.37001729 9.44526798,8.45522304 9.61633804,8.62377708 L11.488971,10.6280328 C11.8137628,10.9522162 11.8137628,11.4713864 11.488971,11.7955698 L11.3425815,11.9416852 L10.3055156,11.9416852 L10.3055156,12.8249645 L12.4964769,12.8249645 L12.4964802,6.95171003 L10.5022323,4.98875077 Z M12.4964802,6.91772522 L12.4964802,6.91710679 C12.4964795,6.91731293 12.4964795,6.91751892 12.4964802,6.91772475 Z M10.2889326,7.77304017 C10.1331385,7.77324397 9.98231638,7.71300474 9.86889473,7.6025001 C9.75412832,7.49012009 9.68884073,7.33592448 9.68983491,7.17704471 L9.68983491,5.25376723 C9.68983491,4.71991135 10.3359314,4.45950132 10.7065786,4.82858982 L12.6800074,6.75477958 C12.851708,6.92517483 12.9044663,7.18244336 12.8118124,7.4032184 C12.7201165,7.62705003 12.5030566,7.76992045 12.2589391,7.77304017 L10.2889326,7.77304017 Z" id="Combined-Shape"></path>
        </g>
    </g>
</svg>