<?xml version="1.0" encoding="UTF-8"?>
<svg width="18px" height="18px" viewBox="0 0 18 18" version="1.1" xmlns="http://www.w3.org/2000/svg" xmlns:xlink="http://www.w3.org/1999/xlink">
    <!-- Generator: Sketch 50.2 (55047) - http://www.bohemiancoding.com/sketch -->
    <title>审批</title>
    <desc>Created with Sketch.</desc>
    <defs></defs>
    <g id="Page-1" stroke="none" stroke-width="1" fill="none" fill-rule="evenodd">
        <g id="审批" fill="#FFB204" stroke="#FFB204">
            <path d="M9,0.5 C4.30557963,0.5 0.5,4.30557963 0.5,9 C0.5,13.6944204 4.30557963,17.5 9,17.5 C13.6944204,17.5 17.5,13.6944204 17.5,9 C17.5,4.30557963 13.6944204,0.5 9,0.5 Z M9,0.5 C13.6944204,0.5 17.5,4.30557963 17.5,9 C17.5,13.6944204 13.6944204,17.5 9,17.5 C4.30557963,17.5 0.5,13.6944204 0.5,9 C0.5,4.30557963 4.30557963,0.5 9,0.5 Z M4.68751345,11.7986226 L13.3125008,11.7986226 L13.3125008,10.9618513 C13.3125008,10.4967498 12.9393539,10.1250084 12.4741659,10.1250084 L9.56944086,10.1250084 L9.56944086,8.00557267 L9.8689523,7.87447476 C10.6545587,7.53061021 11.1736094,6.75324923 11.1736094,5.88194844 C11.1736094,4.68341579 10.199297,3.70833422 8.99999518,3.70833422 C7.80142517,3.70833422 6.82638095,4.68262434 6.82638095,5.88194844 C6.82638095,6.75265745 7.34546119,7.53079153 8.13101406,7.87458361 L8.43054949,8.00567334 L8.43054949,10.1250084 L5.52582447,10.1250084 C5.06444789,10.1250084 4.68751345,10.5009481 4.68751345,10.9617916 L4.68751345,11.7986226 Z M5.22223629,13.3333454 L5.22223629,13.4027911 L12.7777183,13.4027911 L12.7777183,13.3333454 L5.22223629,13.3333454 Z" id="Combined-Shape"></path>
        </g>
    </g>
</svg>